<?xml version="1.0" encoding="UTF-8"?>
<svg id="Layer_1" xmlns="http://www.w3.org/2000/svg" xmlns:xlink="http://www.w3.org/1999/xlink" version="1.1" viewBox="0 0 1200 226.2">
  <!-- Generator: Adobe Illustrator 29.4.0, SVG Export Plug-In . SVG Version: 2.1.0 Build 152)  -->
  <defs>
    <style>
      .st0 {
        fill: url(#linear-gradient2);
      }

      .st1 {
        fill: url(#linear-gradient1);
      }

      .st2 {
        fill: url(#linear-gradient9);
      }

      .st3 {
        fill: url(#linear-gradient3);
      }

      .st4 {
        fill: url(#linear-gradient6);
      }

      .st5 {
        fill: url(#linear-gradient8);
      }

      .st6 {
        fill: url(#linear-gradient7);
      }

      .st7 {
        fill: url(#linear-gradient5);
      }

      .st8 {
        fill: url(#linear-gradient4);
      }

      .st9 {
        fill: url(#linear-gradient);
      }

      .st10 {
        fill: #fbfcfb;
      }
    </style>
    <linearGradient id="linear-gradient" x1="19.6" y1="121.7" x2="1445.7" y2="-41.9" gradientUnits="userSpaceOnUse">
      <stop offset="0" stop-color="#7c46e7"/>
      <stop offset="1" stop-color="#5554f3"/>
    </linearGradient>
    <linearGradient id="linear-gradient1" x1="-9.5" y1="119.5" x2="1534.7" y2="-67.2" xlink:href="#linear-gradient"/>
    <linearGradient id="linear-gradient2" x1="-8.5" y1="128.2" x2="1535.8" y2="-58.5" xlink:href="#linear-gradient"/>
    <linearGradient id="linear-gradient3" x1="269.8" y1="145.2" x2="1163.3" y2="29.8" xlink:href="#linear-gradient"/>
    <linearGradient id="linear-gradient4" x1="277.4" y1="204" x2="1170.9" y2="88.6" xlink:href="#linear-gradient"/>
    <linearGradient id="linear-gradient5" x1="270.9" y1="153.3" x2="1164.3" y2="37.9" xlink:href="#linear-gradient"/>
    <linearGradient id="linear-gradient6" x1="283.3" y1="249.4" x2="1176.7" y2="133.9" xlink:href="#linear-gradient"/>
    <linearGradient id="linear-gradient7" x1="281.4" y1="235" x2="1174.9" y2="119.5" xlink:href="#linear-gradient"/>
    <linearGradient id="linear-gradient8" x1="275.2" y1="187" x2="1168.7" y2="71.5" xlink:href="#linear-gradient"/>
    <linearGradient id="linear-gradient9" x1="277.9" y1="204.7" x2="1171.3" y2="89.2" xlink:href="#linear-gradient"/>
  </defs>
  <g>
    <path class="st9" d="M4.7,110c.2-9.7,1.6-19.1,4.2-28.4,3.5-12.8,9.4-24.3,17.2-34.9,7.5-10.1,16.8-18.4,27.4-25.4,12.9-8.6,27.2-13.6,42.3-16.1,14.2-2.3,28.4-1.4,42.3,2.4,8.4,2.2,16.5,5.2,24,9.4,10.8,6,20.4,13.5,28.7,22.8,6.8,7.7,12.6,16.1,16.9,25.4,4.1,8.8,7.4,18,8.5,27.9.5,4.1,1.1,8.2,1.2,12.4.6,13.2-.9,26.1-5.2,38.5-2,5.6-3.9,11.2-7.1,16.3-1.3,2-1.3,3.9-.4,6,4.2,10.6,8.4,21.3,12.3,32,.8,2.3,1,4.9-.9,7.1-1.9,2.3-4.4,2.6-7,2-7.8-1.9-15.3-4.7-23.1-6.5-4-1-8-2.4-11.9-3.7-1.1-.3-1.7,0-2.4.6-15,10.4-31.7,16.5-49.8,18.1-13.9,1.2-27.8.3-41.3-3.9-16.3-5.1-30.8-13.4-43-25.2-9.4-9.2-17-19.7-22.6-31.7-6.6-14.3-9.9-29.3-10.1-45ZM111.3,176.6c36.3.9,67-29.8,66.8-66.3-.2-37.9-30.2-66.8-66.6-66.8-38.1,0-66.9,29.8-67.1,66.6-.2,36.8,30.3,67.3,66.9,66.5Z"/>
    <path class="st10" d="M111.3,176.6c-36.5.9-67.1-29.6-66.9-66.5.2-36.9,29-66.6,67.1-66.6,36.3,0,66.4,28.9,66.6,66.8.2,36.5-30.5,67.2-66.8,66.3Z"/>
  </g>
  <path class="st1" d="M93.9,85.3c12.3-.4,21.9,10,22,21.5,0,11.1-9.5,21.9-21.9,21.9-11.7,0-21.9-10.3-22-21.8,0-11,9.6-22.2,21.8-21.7Z"/>
  <path class="st0" d="M145.9,110.6c.5,4.9-4.2,9.8-9.5,9.6-5.2-.1-9.6-4.4-9.6-9.6,0-5.3,4.4-9.5,9.7-9.6,4.5,0,9.9,3.9,9.4,9.5Z"/>
  <g>
    <path class="st3" d="M372.3,222.2c-15.1.6-29.2-3.2-42.2-10.4-14.3-7.9-25.7-18.9-33.9-33.1-5.1-8.7-8.9-17.9-10.7-27.9-1.3-7.2-2.6-14.3-2.2-21.7.8-12,3.1-23.6,8.1-34.7,7.5-16.7,19-30,34.4-39.7,12-7.6,25.3-11.9,39.6-13.2,9.1-.8,18-.2,26.8,1.9,16.9,4.2,31.8,12.2,43.9,24.9,3.1,3.2,5.8,6.7,8.6,10.1,1.9,2.3,1.6,2.9-.8,4.6-7.4,5.1-14.8,10.2-22.2,15.3-1.2.9-2.5,1.7-3.8,2.5-2.9,1.8-2.9,1.7-5.1-1-7.8-10.1-17.9-16.4-30.5-18.9-14.5-2.8-27.7.2-39.5,8.5-7.9,5.5-13.6,13.2-17.4,22.1-4.9,11.3-5.4,22.9-2.3,34.4,3,11.3,9.4,20.9,19.1,28.1,11.1,8.1,23.5,11.3,37,9.9,5.9-.6,11.3-3,16.6-5.5,7-3.4,12.7-8.4,17.4-14.6,1.5-2,2.4-2.1,4.5-.7,8.3,5.8,16.4,11.9,25,17.3.7.4,1.3,1,1.9,1.4,1.4,1,1.4,2,.4,3.3-6.9,9.3-15.1,17.2-24.8,23.5-11.6,7.5-24.3,11.8-37.9,13.5-3.2.4-6.6,0-9.9,0Z"/>
    <path class="st8" d="M734.7,150.5c0,22,0,43.9,0,65.9s0,3.9-4,3.9c-9.5,0-19.1,0-28.6,0-2.1,0-2.8-.6-2.8-2.7,0-2.2,1.1-5.2-.5-6.4-1.7-1.3-3.9,1.3-5.8,2.1-13.4,5.5-27.3,7.7-41.5,4.7-11.2-2.3-21.5-6.9-30.6-14.3-9.3-7.6-16.3-16.8-20.9-27.8-5.3-12.8-7.1-26.1-4.2-39.6,2.4-11.3,6.9-21.7,14.5-30.7,7.6-9.1,16.6-16.3,27.6-20.7,11.8-4.7,24-6.8,36.8-4.6,7.8,1.3,15.2,3.6,22.2,7.2,2,1,2.5.4,2.5-1.5.1-5.5.2-5.5,5.8-5.5,8.6,0,17.3,0,25.9,0,3.5,0,3.6,0,3.6,3.6,0,22.1,0,44.3,0,66.4ZM629.9,150.3c.2,19.1,15.6,34.6,34.6,34.7,19.3,0,34.7-15.5,34.9-34.3.2-18.9-15.7-34.8-34.5-34.7-19.8.1-34.5,15.6-34.9,34.4Z"/>
    <path class="st7" d="M455,124.1c0-30.5,0-61,0-91.5,0-2.7.8-3.8,3.5-4.6,9.3-2.8,18.6-5.9,27.8-9,3.9-1.3,4.3-1.1,4.3,2.9,0,21.5,0,43,0,64.6,0,4.7,0,4.8,4.3,2.8,8.6-4,17.6-5.3,27-5.3,11.8,0,22.7,3.1,32.8,9,9.9,5.8,17.9,13.7,23.7,23.6,6.2,10.7,9.1,22.3,9,34.6,0,21.5,0,43,0,64.6,0,3.8,0,3.8-3.9,3.8-9.4,0-18.7,0-28.1,0-3.4,0-3.7-.4-3.7-3.6,0-22,0-43.9,0-65.9,0-12.5-5.7-21.9-16.8-27.5-14.3-7.2-33-2.8-41.4,13.7-2.1,4.1-3,8.5-3,13.1,0,22.1,0,44.3,0,66.4,0,3.6-.2,3.8-3.8,3.8-9.4,0-18.9,0-28.3,0-3.3,0-3.4-.1-3.4-3.5,0-30.7,0-61.4,0-92Z"/>
    <path class="st4" d="M1067.7,167.3c-15.2,0-30.3,0-45.5,0-.9,0-2.2-.5-2.7.6-.4,1,.8,1.4,1.3,2.1,4.5,6.2,10.6,10.2,17.8,12.5,8.2,2.7,16.3,2.1,24.1-1.8,3.3-1.7,6.8-3.1,9.3-6,1-1.2,2-.8,3,.2,7.6,7.3,15.2,14.7,22.9,22,1.6,1.5.8,2.4-.3,3.4-6.6,6.2-13.9,11.2-22.4,14.7-9.7,4-19.6,5.8-29.9,5.3-12.9-.6-24.6-4.6-35.4-11.7-12.8-8.4-21.8-19.8-27-34-3.5-9.6-5.4-19.6-4.2-30,1.7-14.9,7-28.3,16.8-39.6,9.9-11.3,22.2-18.8,37-22.3,9.7-2.3,19.4-2.9,29.1-.8,19.8,4.3,35.5,14.7,46.4,32.1,9.4,15,11.8,31.3,9.6,48.6-.6,4.6-.9,4.8-5.5,4.8-14.8,0-29.6,0-44.4,0ZM1048.1,134c9.4,0,18.9,0,28.3,0,2.5,0,2.7-.4,1.6-2.6-.2-.4-.4-.8-.7-1.1-6.7-11.1-23.7-18.2-36.2-14.6-9.5,2.7-17,7.6-22.3,16-1.5,2.4-.4,2.4,1.5,2.4,9.3,0,18.5,0,27.8,0Z"/>
    <path class="st6" d="M1125.8,92.5c0-21,0-42,0-63,0-2.1.5-3.2,2.7-3.7,6.2-1.7,12.4-3.1,18.7-4.4,3.8-.8,7.6-1.7,11.3-2.8,2.6-.8,3,.4,3,2.4,0,4.6,0,9.2,0,13.9,0,14.8,0,29.5,0,44.3q0,3.7,3.6,3.7c9.2,0,18.4,0,27.5,0,2.2,0,2.7.7,2.7,2.8,0,9.6-.1,19.2,0,28.8,0,2.4-.8,3-3.1,3-9.3-.1-18.5,0-27.8,0-2.4,0-3,.7-3,3.1.1,10,.2,19.9,0,29.9-.1,9.9,3.8,17.9,10.8,24.6,5.9,5.6,13.1,8.3,21,9.3,1.4.2,2,.5,2,2,0,10.7,0,21.3,0,32,0,2.1-1,2.3-2.7,2.2-9-.3-17.6-2.5-25.7-6.3-16.4-7.6-28.2-19.7-35.5-36.2-4.1-9.4-5.6-19.1-5.5-29.3.1-18.7,0-37.3,0-56Z"/>
    <path class="st5" d="M748.2,91.6c0-20.6,0-41.3,0-61.9,0-2.2.5-3.4,2.8-3.9,6.3-1.4,12.6-2.9,18.9-4.4,3.6-.9,7.2-1.8,10.8-2.7,2.9-.7,3.2-.5,3.2,2.6,0,18.3,0,36.6,0,55,0,1.3.1,2.7,0,4-.2,2.2.7,2.7,2.8,2.7,9.4,0,18.7,0,28.1,0,2.4,0,3,.7,3,3-.1,9.4-.1,18.9,0,28.3,0,2.7-.9,3.3-3.4,3.2-9.2-.1-18.4,0-27.5,0-2.2,0-2.9.7-2.9,2.9,0,10.3-.2,20.6.1,30.9.5,13.3,7,23,18.8,29.1,4.1,2.1,8.5,3.5,13.2,3.9,1.3,0,1.7.6,1.7,1.8,0,10.8,0,21.7,0,32.5,0,1.5-.8,2-2.2,1.9-7.9-.3-15.4-2-22.8-4.9-5.2-2-10-4.6-14.5-7.7-6.1-4.1-11.2-9.2-15.7-15-3.7-4.7-6.4-10-8.9-15.4-3.7-8.1-5.2-16.8-5.3-25.6-.3-20,0-40,0-60Z"/>
    <path class="st2" d="M960.3,139.3h0c-5.4-7.1-12.1-12-19.9-14.6,7-3.1,12.8-7.7,17.3-13.7,5.6-7.4,8.4-16.6,8.4-27.5s-2.3-17.7-6.8-25c-4.5-7.3-11.2-13.1-20-17.2-8.7-4.1-19.1-6.1-31-6.1h-72.9v184.6h76.1c11.9,0,22.4-2.1,31.1-6.4,8.8-4.3,15.7-10.3,20.3-17.9,4.7-7.6,7.1-16.5,7.1-26.5s-3.3-21-9.7-29.6ZM873.3,109.9v-42.2h30.1c7.8,0,13.9,1.9,18,5.6,4.1,3.7,6.1,8.8,6.1,15.6s-2,11.9-6.1,15.5c-4.1,3.6-10.2,5.5-18.1,5.5h-30.1ZM931.8,164.5c0,7.2-2.1,12.5-6.5,16.4-4.4,3.9-10.7,5.8-18.7,5.8h-33.3v-45.5h32.6c8,0,14.4,2.1,19,6.2,4.6,4.1,6.9,9.7,6.9,17.1Z"/>
  </g>
</svg>