<svg width="446" height="40" viewBox="0 0 446 40" fill="none" xmlns="http://www.w3.org/2000/svg">
<path d="M10.746 17.932C10.746 18.664 10.578 19.336 10.242 19.948C9.906 20.548 9.39 21.034 8.694 21.406C7.998 21.778 7.134 21.964 6.102 21.964H4.194V26.5H1.116V13.864H6.102C7.11 13.864 7.962 14.038 8.658 14.386C9.354 14.734 9.876 15.214 10.224 15.826C10.572 16.438 10.746 17.14 10.746 17.932ZM5.868 19.516C6.456 19.516 6.894 19.378 7.182 19.102C7.47 18.826 7.614 18.436 7.614 17.932C7.614 17.428 7.47 17.038 7.182 16.762C6.894 16.486 6.456 16.348 5.868 16.348H4.194V19.516H5.868ZM16.6144 26.644C15.6304 26.644 14.7424 26.434 13.9504 26.014C13.1704 25.594 12.5524 24.994 12.0964 24.214C11.6524 23.434 11.4304 22.522 11.4304 21.478C11.4304 20.446 11.6584 19.54 12.1144 18.76C12.5704 17.968 13.1944 17.362 13.9864 16.942C14.7784 16.522 15.6664 16.312 16.6504 16.312C17.6344 16.312 18.5224 16.522 19.3144 16.942C20.1064 17.362 20.7304 17.968 21.1864 18.76C21.6424 19.54 21.8704 20.446 21.8704 21.478C21.8704 22.51 21.6364 23.422 21.1684 24.214C20.7124 24.994 20.0824 25.594 19.2784 26.014C18.4864 26.434 17.5984 26.644 16.6144 26.644ZM16.6144 23.98C17.2024 23.98 17.7004 23.764 18.1084 23.332C18.5284 22.9 18.7384 22.282 18.7384 21.478C18.7384 20.674 18.5344 20.056 18.1264 19.624C17.7304 19.192 17.2384 18.976 16.6504 18.976C16.0504 18.976 15.5524 19.192 15.1564 19.624C14.7604 20.044 14.5624 20.662 14.5624 21.478C14.5624 22.282 14.7544 22.9 15.1384 23.332C15.5344 23.764 16.0264 23.98 16.6144 23.98ZM37.6154 16.456L34.8974 26.5H31.4954L29.9114 19.984L28.2734 26.5H24.8894L22.1534 16.456H25.2314L26.6534 23.638L28.3454 16.456H31.6034L33.3134 23.602L34.7174 16.456H37.6154ZM47.9512 21.316C47.9512 21.604 47.9332 21.904 47.8972 22.216H40.9312C40.9792 22.84 41.1772 23.32 41.5252 23.656C41.8852 23.98 42.3232 24.142 42.8392 24.142C43.6072 24.142 44.1412 23.818 44.4412 23.17H47.7172C47.5492 23.83 47.2432 24.424 46.7992 24.952C46.3672 25.48 45.8212 25.894 45.1612 26.194C44.5012 26.494 43.7632 26.644 42.9472 26.644C41.9632 26.644 41.0872 26.434 40.3192 26.014C39.5512 25.594 38.9512 24.994 38.5192 24.214C38.0872 23.434 37.8712 22.522 37.8712 21.478C37.8712 20.434 38.0812 19.522 38.5012 18.742C38.9332 17.962 39.5332 17.362 40.3012 16.942C41.0692 16.522 41.9512 16.312 42.9472 16.312C43.9192 16.312 44.7832 16.516 45.5392 16.924C46.2952 17.332 46.8832 17.914 47.3032 18.67C47.7352 19.426 47.9512 20.308 47.9512 21.316ZM44.8012 20.506C44.8012 19.978 44.6212 19.558 44.2612 19.246C43.9012 18.934 43.4512 18.778 42.9112 18.778C42.3952 18.778 41.9572 18.928 41.5972 19.228C41.2492 19.528 41.0332 19.954 40.9492 20.506H44.8012ZM52.347 18.13C52.707 17.578 53.157 17.146 53.697 16.834C54.237 16.51 54.837 16.348 55.497 16.348V19.606H54.651C53.883 19.606 53.307 19.774 52.923 20.11C52.539 20.434 52.347 21.01 52.347 21.838V26.5H49.269V16.456H52.347V18.13ZM63.2486 17.878C63.5366 17.41 63.9506 17.032 64.4906 16.744C65.0306 16.456 65.6486 16.312 66.3446 16.312C67.1726 16.312 67.9226 16.522 68.5946 16.942C69.2666 17.362 69.7946 17.962 70.1786 18.742C70.5746 19.522 70.7726 20.428 70.7726 21.46C70.7726 22.492 70.5746 23.404 70.1786 24.196C69.7946 24.976 69.2666 25.582 68.5946 26.014C67.9226 26.434 67.1726 26.644 66.3446 26.644C65.6366 26.644 65.0186 26.506 64.4906 26.23C63.9626 25.942 63.5486 25.564 63.2486 25.096V26.5H60.1706V13.18H63.2486V17.878ZM67.6406 21.46C67.6406 20.692 67.4246 20.092 66.9926 19.66C66.5726 19.216 66.0506 18.994 65.4266 18.994C64.8146 18.994 64.2926 19.216 63.8606 19.66C63.4406 20.104 63.2306 20.71 63.2306 21.478C63.2306 22.246 63.4406 22.852 63.8606 23.296C64.2926 23.74 64.8146 23.962 65.4266 23.962C66.0386 23.962 66.5606 23.74 66.9926 23.296C67.4246 22.84 67.6406 22.228 67.6406 21.46ZM82.3414 16.456L76.0414 31.27H72.7294L75.0334 26.158L70.9474 16.456H74.3854L76.7074 22.738L79.0114 16.456H82.3414ZM84.5885 26.644C84.0485 26.644 83.6045 26.488 83.2565 26.176C82.9205 25.852 82.7525 25.456 82.7525 24.988C82.7525 24.508 82.9205 24.106 83.2565 23.782C83.6045 23.458 84.0485 23.296 84.5885 23.296C85.1165 23.296 85.5485 23.458 85.8845 23.782C86.2325 24.106 86.4065 24.508 86.4065 24.988C86.4065 25.456 86.2325 25.852 85.8845 26.176C85.5485 26.488 85.1165 26.644 84.5885 26.644ZM84.5885 19.318C84.0485 19.318 83.6045 19.162 83.2565 18.85C82.9205 18.526 82.7525 18.13 82.7525 17.662C82.7525 17.182 82.9205 16.78 83.2565 16.456C83.6045 16.132 84.0485 15.97 84.5885 15.97C85.1165 15.97 85.5485 16.132 85.8845 16.456C86.2325 16.78 86.4065 17.182 86.4065 17.662C86.4065 18.13 86.2325 18.526 85.8845 18.85C85.5485 19.162 85.1165 19.318 84.5885 19.318Z" fill="white"/>
<path d="M187.082 14.5938C187.082 15.407 187.17 16.0664 187.325 16.5499C187.501 17.0334 187.722 17.5609 188.032 18.1323C188.142 18.3081 188.186 18.4839 188.186 18.6378C188.186 18.8576 188.054 19.0774 187.766 19.2971L186.375 20.2202C186.176 20.3521 185.977 20.418 185.801 20.418C185.58 20.418 185.359 20.3081 185.138 20.1103C184.829 19.7807 184.564 19.429 184.343 19.0774C184.122 18.7037 183.901 18.2861 183.658 17.7807C181.936 19.8026 179.771 20.8136 177.165 20.8136C175.31 20.8136 173.83 20.2861 172.748 19.2312C171.665 18.1763 171.113 16.7697 171.113 15.0114C171.113 13.1433 171.776 11.6268 173.123 10.4839C174.47 9.34109 176.259 8.76966 178.534 8.76966C179.285 8.76966 180.058 8.8356 180.875 8.94549C181.693 9.05538 182.532 9.2312 183.415 9.429V7.82461C183.415 6.15428 183.062 4.98944 182.377 4.30812C181.671 3.6268 180.478 3.29713 178.777 3.29713C178.004 3.29713 177.209 3.38504 176.392 3.58285C175.575 3.78065 174.78 4.02241 174.007 4.3301C173.653 4.48395 173.388 4.57186 173.234 4.61581C173.079 4.65977 172.969 4.68175 172.88 4.68175C172.571 4.68175 172.416 4.46197 172.416 4.00043V2.92351C172.416 2.57186 172.461 2.30812 172.571 2.15428C172.681 2.00043 172.88 1.84658 173.189 1.69274C173.962 1.29713 174.89 0.967462 175.972 0.703726C177.055 0.418012 178.203 0.286144 179.418 0.286144C182.046 0.286144 183.968 0.87955 185.204 2.06636C186.419 3.25318 187.038 5.05538 187.038 7.47296V14.5938H187.082ZM178.115 17.9345C178.844 17.9345 179.594 17.8026 180.39 17.5389C181.185 17.2752 181.891 16.7916 182.488 16.1323C182.841 15.7147 183.106 15.2532 183.239 14.7257C183.371 14.1982 183.46 13.5609 183.46 12.8136V11.8905C182.819 11.7367 182.134 11.6048 181.428 11.5169C180.721 11.429 180.036 11.385 179.352 11.385C177.872 11.385 176.79 11.6708 176.061 12.2642C175.332 12.8576 174.978 13.6927 174.978 14.7916C174.978 15.8246 175.243 16.5938 175.796 17.1213C176.326 17.6708 177.099 17.9345 178.115 17.9345ZM195.85 20.3081C195.453 20.3081 195.188 20.2422 195.011 20.0883C194.834 19.9565 194.68 19.6488 194.547 19.2312L189.357 2.24219C189.224 1.80263 189.158 1.51691 189.158 1.36307C189.158 1.01142 189.335 0.813616 189.688 0.813616H191.852C192.272 0.813616 192.559 0.87955 192.714 1.0334C192.891 1.16526 193.023 1.47296 193.156 1.89054L196.866 16.44L200.312 1.89054C200.422 1.45098 200.555 1.16526 200.731 1.0334C200.908 0.901528 201.217 0.813616 201.615 0.813616H203.382C203.801 0.813616 204.088 0.87955 204.265 1.0334C204.442 1.16526 204.596 1.47296 204.685 1.89054L208.174 16.6158L211.995 1.89054C212.128 1.45098 212.282 1.16526 212.437 1.0334C212.614 0.901528 212.901 0.813616 213.298 0.813616H215.352C215.706 0.813616 215.905 0.98944 215.905 1.36307C215.905 1.47296 215.883 1.58285 215.86 1.71472C215.838 1.84658 215.794 2.02241 215.706 2.26417L210.383 19.2532C210.25 19.6927 210.096 19.9785 209.919 20.1103C209.743 20.2422 209.455 20.3301 209.08 20.3301H207.18C206.761 20.3301 206.474 20.2642 206.297 20.1103C206.12 19.9565 205.966 19.6708 205.877 19.2312L202.454 5.05537L199.053 19.2092C198.942 19.6488 198.81 19.9345 198.633 20.0883C198.456 20.2422 198.147 20.3081 197.75 20.3081H195.85ZM224.231 20.9015C223.083 20.9015 221.934 20.7697 220.83 20.5059C219.726 20.2422 218.864 19.9565 218.29 19.6268C217.937 19.429 217.694 19.2092 217.605 19.0114C217.517 18.8136 217.473 18.5938 217.473 18.396V17.2752C217.473 16.8136 217.649 16.5938 217.981 16.5938C218.113 16.5938 218.246 16.6158 218.378 16.6598C218.511 16.7037 218.71 16.7916 218.93 16.8796C219.681 17.2092 220.499 17.473 221.36 17.6488C222.243 17.8246 223.105 17.9125 223.988 17.9125C225.38 17.9125 226.462 17.6708 227.213 17.1872C227.964 16.7037 228.361 16.0004 228.361 15.0993C228.361 14.4839 228.163 13.9785 227.765 13.5609C227.368 13.1433 226.617 12.7697 225.534 12.418L222.332 11.429C220.719 10.9235 219.527 10.1763 218.798 9.18724C218.069 8.22021 217.694 7.14329 217.694 6.00043C217.694 5.07735 217.892 4.26417 218.29 3.56087C218.688 2.85757 219.218 2.24219 219.88 1.75867C220.543 1.25318 221.294 0.87955 222.177 0.615814C223.061 0.352078 223.988 0.242188 224.96 0.242188C225.446 0.242188 225.954 0.264166 226.44 0.3301C226.948 0.396034 227.412 0.483946 227.875 0.571858C228.317 0.681748 228.737 0.791638 229.134 0.923506C229.532 1.05537 229.841 1.18724 230.062 1.31911C230.371 1.49493 230.592 1.67076 230.725 1.86856C230.857 2.04439 230.923 2.28614 230.923 2.59384V3.6268C230.923 4.08834 230.747 4.3301 230.415 4.3301C230.239 4.3301 229.952 4.24219 229.576 4.06636C228.317 3.49494 226.904 3.20922 225.336 3.20922C224.077 3.20922 223.083 3.40702 222.398 3.82461C221.713 4.24219 221.36 4.87955 221.36 5.78065C221.36 6.39603 221.581 6.92351 222.023 7.34109C222.464 7.75867 223.282 8.17625 224.452 8.54988L227.588 9.53889C229.179 10.0444 230.327 10.7477 231.012 11.6488C231.696 12.5499 232.028 13.5828 232.028 14.7257C232.028 15.6708 231.829 16.5279 231.453 17.2752C231.056 18.0224 230.526 18.6817 229.841 19.2092C229.157 19.7587 228.339 20.1543 227.39 20.44C226.396 20.7477 225.358 20.9015 224.231 20.9015Z" fill="white"/>
<path fill-rule="evenodd" clip-rule="evenodd" d="M228.409 31.5847C221.143 36.9253 210.585 39.7605 201.508 39.7605C188.786 39.7605 177.323 35.0792 168.665 27.2989C167.981 26.6836 168.599 25.8484 169.416 26.3319C178.781 31.7385 190.332 35.0132 202.281 35.0132C210.342 35.0132 219.199 33.3429 227.349 29.9143C228.564 29.3649 229.602 30.7055 228.409 31.5847Z" fill="white"/>
<path fill-rule="evenodd" clip-rule="evenodd" d="M231.435 28.1553C230.507 26.9685 225.295 27.5839 222.931 27.8696C222.225 27.9575 222.114 27.3421 222.755 26.8806C226.907 23.9795 233.732 24.8147 234.527 25.7817C235.322 26.7707 234.306 33.5619 230.419 36.8147C229.822 37.3202 229.248 37.0564 229.513 36.3971C230.397 34.2213 232.362 29.3202 231.435 28.1553Z" fill="white"/>
<path d="M317.758 0C318.091 0.147381 318.456 0.132643 318.804 0.209281C320.837 0.658056 322.581 1.61972 324.013 3.14069C324.156 3.29176 324.291 3.33671 324.494 3.30134C330.116 2.31904 335.328 6.00504 336.267 11.632C336.518 13.1412 336.424 14.6386 335.982 16.1051C335.912 16.3379 335.954 16.4801 336.105 16.6585C340.93 22.3724 338.049 31.2367 330.791 33.003C330.559 33.059 330.462 33.1733 330.379 33.3907C329.053 36.8858 326.56 39.039 322.951 39.9071C322.832 39.9358 322.68 39.8526 322.591 40H319.002C318.973 39.882 318.864 39.9152 318.792 39.899C316.732 39.4443 314.978 38.448 313.539 36.8991C313.416 36.7672 313.315 36.7664 313.157 36.7974C311.947 37.031 310.732 37.0391 309.521 36.8173C303.603 35.734 299.954 29.7739 301.647 23.9575C301.7 23.7777 301.695 23.6576 301.565 23.5014C299.541 21.0622 298.792 18.2701 299.293 15.1346C299.908 11.2975 302.938 7.99984 306.714 7.08166C307.011 7.00944 307.17 6.88712 307.288 6.58499C308.568 3.29986 310.917 1.21 314.3 0.286656C314.741 0.166541 315.204 0.165067 315.634 0H317.758ZM316.139 35.7443C318.018 37.2189 320.089 37.7833 322.382 37.2985C325.924 36.5498 328.317 33.5837 328.358 29.9058C328.391 26.8993 328.362 23.8919 328.369 20.8846C328.369 20.6687 328.292 20.556 328.112 20.4535C327.233 19.9532 326.36 19.4403 325.486 18.9326C325.321 18.8368 325.154 18.7432 324.947 18.6253C324.947 18.7948 324.947 18.9134 324.947 19.0313C324.947 22.5788 324.94 26.1255 324.954 29.673C324.956 30.3362 324.692 30.7805 324.128 31.1055C321.804 32.4423 319.488 33.7937 317.169 35.1401C316.835 35.3346 316.501 35.5321 316.14 35.7451L316.139 35.7443ZM306.687 9.94527C306.602 9.95706 306.564 9.95485 306.532 9.96738C304.807 10.6498 303.489 11.8185 302.62 13.4507C300.818 16.8375 301.957 21.2059 305.217 23.2059C307.907 24.8558 310.665 26.393 313.391 27.9818C313.503 28.0466 313.594 28.0812 313.725 28.0039C314.793 27.3746 315.866 26.7541 316.958 26.1189C316.836 26.0452 316.743 25.987 316.649 25.9324C313.592 24.1587 310.538 22.382 307.477 20.6164C306.922 20.2966 306.667 19.8581 306.679 19.2089C306.703 17.9702 306.686 16.73 306.686 15.4905C306.686 13.6504 306.686 11.8104 306.686 9.94527H306.687ZM323.14 24.7703C322.995 24.7246 322.924 24.8116 322.844 24.8573C319.86 26.5861 316.866 28.2964 313.903 30.0628C313.112 30.5351 312.466 30.5359 311.675 30.0598C309.222 28.5823 306.731 27.1697 304.253 25.7327C304.112 25.6509 303.96 25.4954 303.922 25.833C303.644 28.2927 304.343 30.4386 306.094 32.1637C308.584 34.6161 312.14 35.0089 315.154 33.258C317.535 31.8741 319.902 30.4644 322.311 29.1291C322.952 28.7732 323.213 28.3981 323.158 27.6605C323.087 26.6988 323.14 25.7283 323.14 24.7711V24.7703ZM314.523 15.3785C314.696 15.2856 314.813 15.2274 314.925 15.1626C317.96 13.4014 320.997 11.6431 324.026 9.87306C324.589 9.5444 325.111 9.53776 325.674 9.87306C327.274 10.8281 328.886 11.7647 330.493 12.7079C331.532 13.3166 332.571 13.9238 333.646 14.5524C333.806 13.674 333.784 12.8398 333.654 12.0012C333.149 8.74191 330.258 6.06252 326.992 5.80608C325.36 5.67786 323.853 6.02936 322.442 6.85248C319.905 8.33145 317.363 9.8001 314.826 11.2769C314.689 11.3557 314.517 11.3918 314.519 11.6306C314.53 12.8568 314.524 14.0837 314.524 15.3777L314.523 15.3785ZM331.014 30.2116C332.166 29.7702 333.111 29.107 333.917 28.2301C336.71 25.1852 336.423 20.2443 333.299 17.5553C332.355 16.7425 331.238 16.2104 330.18 15.5855C328.238 14.4389 326.286 13.3115 324.334 12.181C324.209 12.1088 324.094 11.9747 323.907 12.0852C322.842 12.7131 321.772 13.3321 320.675 13.971C320.8 14.0484 320.891 14.1066 320.985 14.1611C324.026 15.9385 327.063 17.7248 330.113 19.4853C330.744 19.8493 331.027 20.3253 331.022 21.0593C331.003 24.0909 331.014 27.1233 331.014 30.2116ZM312.667 21.4727V20.9915C312.667 17.4698 312.671 13.9481 312.663 10.4265C312.661 9.78389 312.911 9.32627 313.473 9.02046C313.975 8.74707 314.466 8.45083 314.961 8.1627C317.12 6.90775 319.28 5.6528 321.443 4.39564C321.418 4.35585 321.404 4.31826 321.378 4.29689C321.273 4.21215 321.168 4.12888 321.058 4.05224C319.461 2.93878 317.704 2.49074 315.765 2.7155C312.492 3.095 309.693 5.89745 309.326 9.18479C309.281 9.58861 309.261 9.99022 309.262 10.3955C309.263 13.3159 309.262 16.2362 309.265 19.1566C309.265 19.3047 309.204 19.4735 309.39 19.5803C310.465 20.1964 311.537 20.8183 312.667 21.4719V21.4727ZM314.5 20.0578H314.523C314.523 20.7933 314.531 21.5294 314.518 22.2649C314.514 22.4771 314.582 22.5906 314.766 22.6952C316.048 23.424 317.323 24.1646 318.597 24.9074C318.757 25.0002 318.872 25.0216 319.05 24.917C320.329 24.1602 321.618 23.4188 322.907 22.6783C323.072 22.5839 323.147 22.4793 323.146 22.2752C323.136 20.7903 323.136 19.3047 323.146 17.8198C323.147 17.6194 323.08 17.5074 322.914 17.4123C321.624 16.6725 320.336 15.9304 319.053 15.1788C318.87 15.0712 318.736 15.0845 318.56 15.1884C317.298 15.9289 316.034 16.6629 314.765 17.3888C314.574 17.4986 314.489 17.6179 314.495 17.8478C314.51 18.584 314.5 19.3202 314.5 20.0571L314.5 20.0578Z" fill="white"/>
<path d="M445.265 30.2003C445.168 30.1192 445.053 30.1671 444.949 30.1671C443.742 30.1627 442.535 30.1561 441.328 30.1708C441.066 30.1738 441.012 30.0935 441.012 29.8429C441.018 23.0361 441.019 16.2293 441.012 9.42252C441.012 9.17418 441.085 9.12481 441.316 9.12702C442.633 9.13808 443.95 9.13218 445.266 9.13218V30.2003H445.265Z" fill="white"/>
<path d="M364.965 19.6926C364.961 21.6867 364.686 23.6284 363.768 25.4257C362.35 28.2068 360.062 29.8147 357.024 30.338C355.101 30.6688 353.177 30.6077 351.306 30.0174C348.419 29.1073 346.398 27.2105 345.432 24.3314C344.32 21.0176 344.312 17.644 345.675 14.409C347.028 11.2013 349.515 9.33468 353.001 8.90285C355.065 8.64714 357.1 8.74515 359.041 9.54396C362.109 10.8063 363.895 13.1622 364.629 16.3706C364.879 17.4627 364.97 18.5733 364.964 19.6934L364.965 19.6926ZM349.046 19.6432C349.075 20.8245 349.182 22.0397 349.617 23.204C350.48 25.5127 352.473 26.89 354.942 26.876C357.316 26.8627 359.309 25.4486 360.078 23.1214C360.816 20.8886 360.826 18.6072 360.174 16.3537C359.473 13.9263 357.611 12.5262 355.114 12.4385C352.383 12.3427 350.301 13.7856 349.498 16.3323C349.163 17.3942 349.076 18.4915 349.045 19.644L349.046 19.6432Z" fill="white"/>
<path d="M436.593 30.1649C435.934 30.1649 435.275 30.1539 434.617 30.1708C434.385 30.1767 434.281 30.1052 434.199 29.8827C433.677 28.4744 433.131 27.0743 432.61 25.6661C432.532 25.4561 432.433 25.3957 432.22 25.3964C429.633 25.4038 427.046 25.4045 424.46 25.3957C424.235 25.3949 424.151 25.4701 424.078 25.6764C423.585 27.0699 423.068 28.4553 422.578 29.8503C422.489 30.1052 422.367 30.1745 422.111 30.1715C420.879 30.1583 419.646 30.1656 418.414 30.1656C418.109 30.1656 418.011 30.0269 418.118 29.7493C420.291 24.1193 422.463 18.4894 424.636 12.8594C425.08 11.7084 425.531 10.5595 425.965 9.40481C426.041 9.20364 426.129 9.12479 426.353 9.127C427.671 9.13953 428.989 9.14026 430.306 9.127C430.533 9.12479 430.618 9.21469 430.694 9.40629C433.387 16.2094 436.083 23.011 438.787 29.809C438.915 30.1295 438.859 30.1855 438.533 30.173C437.887 30.1494 437.241 30.1656 436.594 30.1656L436.593 30.1649ZM425.486 21.7929H431.133C430.186 19.2344 429.249 16.7046 428.276 14.0783C427.325 16.7098 426.411 19.2388 425.486 21.7929Z" fill="white"/>
<path d="M371.845 16.9864C372.758 15.8398 373.853 15.0432 375.255 14.7315C378.036 14.1132 380.732 15.4758 382 18.1205C382.837 19.8662 382.964 21.7247 382.824 23.6164C382.709 25.1535 382.323 26.6067 381.423 27.8889C379.892 30.0716 377.319 31.0186 374.906 30.2772C373.996 29.998 373.259 29.4416 372.589 28.7857C372.451 28.6502 372.341 28.4866 372.212 28.3289C372.068 28.4844 372.115 28.5993 372.114 28.7003C372.111 30.9957 372.108 33.2912 372.117 35.5866C372.118 35.8527 372.08 35.9625 371.773 35.9566C370.675 35.9345 369.576 35.9359 368.478 35.9551C368.169 35.9603 368.073 35.9006 368.074 35.5631C368.087 29.2168 368.083 22.8699 368.083 16.5236C368.083 16.0815 368.096 15.6394 368.078 15.1979C368.068 14.9651 368.147 14.9083 368.367 14.9106C369.429 14.9209 370.491 14.9238 371.553 14.9091C371.809 14.9054 371.854 15.0005 371.849 15.2282C371.835 15.814 371.844 16.4006 371.844 16.9872L371.845 16.9864ZM378.775 22.4963C378.801 21.8058 378.73 21.0755 378.535 20.3614C378.117 18.8302 376.996 17.8619 375.573 17.7896C374.178 17.7189 372.888 18.584 372.417 20.0527C371.846 21.8338 371.906 23.6355 372.637 25.3672C373.167 26.6244 374.488 27.4107 375.727 27.3134C377.044 27.2102 378.05 26.3576 378.475 24.9804C378.72 24.1875 378.791 23.3717 378.775 22.4963H378.775Z" fill="white"/>
<path d="M393.969 23.7207C392.407 23.7207 390.844 23.7251 389.282 23.7163C389.054 23.7148 388.976 23.7516 388.997 24.011C389.073 24.9521 389.318 25.8201 389.976 26.5246C390.729 27.3293 391.671 27.6182 392.736 27.4531C393.763 27.2939 394.351 26.6012 394.655 25.6514C394.748 25.3618 394.871 25.3242 395.15 25.3772C396.215 25.5792 397.286 25.7516 398.356 25.9299C398.803 26.0044 398.805 25.9977 398.624 26.4325C397.491 29.1642 395.387 30.4243 392.511 30.5098C391.231 30.5481 389.976 30.4074 388.793 29.8819C387.033 29.1001 385.911 27.728 385.358 25.9063C384.58 23.3463 384.61 20.7885 385.753 18.342C386.988 15.6987 389.683 14.3016 392.579 14.6081C394.699 14.8321 396.435 15.6877 397.634 17.499C398.415 18.678 398.736 20.0207 398.903 21.4075C398.985 22.0789 398.986 22.7531 398.996 23.4281C399 23.675 398.925 23.7273 398.693 23.7258C397.118 23.7155 395.544 23.7207 393.97 23.7207H393.969ZM392.02 21.2277H393.959C394.747 21.2277 395.048 20.8337 394.863 20.0457C394.33 17.7746 391.8 16.9065 390.108 18.426C389.373 19.0863 389.116 19.9669 389.056 20.9293C389.04 21.1813 389.113 21.2366 389.349 21.2329C390.239 21.2204 391.129 21.2277 392.02 21.2277Z" fill="white"/>
<path d="M405.935 17.123C406.688 16.1909 407.505 15.4635 408.547 15.0516C410.291 14.3619 412.024 14.4031 413.715 15.2425C415.032 15.8961 415.672 17.0317 415.89 18.4421C416.001 19.1576 416.03 19.8813 416.03 20.6056C416.03 23.6623 416.023 26.7198 416.039 29.7764C416.04 30.111 415.949 30.181 415.634 30.1751C414.536 30.1552 413.436 30.1574 412.339 30.1744C412.066 30.1788 411.994 30.1103 411.994 29.831C412.006 27.2039 412.005 24.5761 411.998 21.949C411.996 21.2379 411.961 20.5275 411.873 19.8208C411.69 18.3566 410.571 17.4922 409.119 17.7015C407.581 17.9233 406.571 18.9587 406.375 20.5084C406.273 21.3123 406.228 22.12 406.228 22.9298C406.227 25.226 406.222 27.5215 406.236 29.817C406.237 30.1154 406.15 30.1773 405.872 30.1736C404.749 30.1582 403.626 30.1618 402.503 30.1714C402.277 30.1736 402.193 30.1309 402.193 29.8744C402.202 24.988 402.201 20.1016 402.194 15.2152C402.194 14.9713 402.259 14.9079 402.497 14.9108C403.546 14.9234 404.596 14.9248 405.645 14.9101C405.899 14.9064 405.945 14.9941 405.94 15.2233C405.925 15.8246 405.935 16.4259 405.935 17.1223L405.935 17.123Z" fill="white"/>
</svg>
