<svg width="175" height="34" viewBox="0 0 175 34" fill="none" xmlns="http://www.w3.org/2000/svg">
<g clip-path="url(#clip0_3111_1567)">
<path d="M0.00195312 16.5398C0.034086 15.1011 0.238933 13.7151 0.616495 12.3332C1.13464 10.4406 1.99018 8.73845 3.13893 7.17412C4.23948 5.67463 5.60111 4.44667 7.15153 3.40919C9.04737 2.14071 11.132 1.39096 13.3451 1.02622C15.4217 0.681747 17.5064 0.823591 19.5508 1.37881C20.7759 1.71112 21.9648 2.15287 23.0653 2.77292C24.6439 3.66451 26.0577 4.76684 27.2667 6.14474C28.2669 7.28759 29.1104 8.53176 29.745 9.90562C30.3515 11.2146 30.8335 12.5723 30.9941 14.0312C31.0624 14.6432 31.1508 15.2511 31.1789 15.8711C31.2592 17.8205 31.0504 19.7252 30.4077 21.5732C30.1185 22.4 29.8414 23.2389 29.3594 23.9805C29.1706 24.2723 29.1706 24.552 29.2991 24.8721C29.9137 26.4486 30.5242 28.0251 31.1066 29.6097C31.2311 29.9461 31.2512 30.327 30.9741 30.6512C30.6889 30.9876 30.3354 31.0403 29.9418 30.943C28.8011 30.6634 27.7005 30.2541 26.5558 29.9785C25.9613 29.8366 25.3829 29.6259 24.8045 29.4314C24.6519 29.3787 24.5595 29.4435 24.4511 29.5205C22.25 31.0605 19.8039 31.9643 17.1449 32.1993C15.1044 32.3817 13.068 32.2439 11.0958 31.6239C8.70997 30.8701 6.58117 29.6462 4.78574 27.8873C3.40402 26.5337 2.29142 24.9734 1.47605 23.1943C0.50403 21.0707 0.0220362 18.8539 0.00195312 16.5398ZM15.6266 26.404C20.9446 26.5418 25.4432 21.9907 25.4151 16.5966C25.387 10.9877 20.9847 6.70806 15.6587 6.71212C10.0796 6.71212 5.85818 11.1133 5.82604 16.5682C5.79391 22.019 10.2724 26.5297 15.6266 26.404Z" fill="url(#paint0_linear_3111_1567)"/>
<path d="M13.0782 12.8818C14.8857 12.8169 16.2955 14.365 16.3076 16.0672C16.3196 17.7044 14.9138 19.3012 13.0983 19.3093C11.3792 19.3174 9.88502 17.7895 9.87699 16.0915C9.86895 14.4583 11.2788 12.8007 13.0782 12.8818Z" fill="url(#paint1_linear_3111_1567)"/>
<path d="M20.7059 16.6333C20.7823 17.3506 20.0874 18.0801 19.3082 18.0599C18.549 18.0396 17.9023 17.4074 17.9023 16.6455C17.9023 15.8593 18.545 15.2432 19.3282 15.223C19.9789 15.2068 20.7742 15.7944 20.7059 16.6293V16.6333Z" fill="url(#paint2_linear_3111_1567)"/>
<path d="M53.8855 33.1514C51.6764 33.2405 49.6078 32.6732 47.6959 31.6114C45.5992 30.4482 43.9243 28.815 42.7193 26.7198C41.9762 25.431 41.4139 24.0734 41.1488 22.5901C40.96 21.5283 40.7592 20.4665 40.8315 19.3885C40.952 17.6134 41.2934 15.8951 42.0244 14.2497C43.125 11.7736 44.812 9.81611 47.0653 8.37742C48.8246 7.25483 50.7726 6.61045 52.8693 6.42403C54.1988 6.30245 55.5122 6.38756 56.7935 6.70772C59.2718 7.32778 61.4488 8.51115 63.2281 10.3956C63.678 10.8739 64.0756 11.3885 64.4894 11.8951C64.7625 12.2275 64.7223 12.3247 64.3648 12.5679C63.2763 13.3136 62.1999 14.0755 61.1154 14.8293C60.9346 14.9549 60.7459 15.0765 60.5611 15.1981C60.1394 15.4696 60.1273 15.4574 59.818 15.0522C58.6733 13.5608 57.1992 12.6206 55.3435 12.2558C53.2228 11.8384 51.2867 12.2923 49.5476 13.5121C48.3867 14.3267 47.5593 15.4615 46.993 16.7867C46.282 18.4523 46.2057 20.1788 46.6556 21.8809C47.1014 23.5547 48.0333 24.9771 49.4632 26.0308C51.0899 27.2264 52.9014 27.7046 54.8856 27.4979C55.7452 27.4087 56.5445 27.0602 57.3197 26.6833C58.3479 26.1808 59.1874 25.4391 59.8622 24.5192C60.0751 24.2274 60.2117 24.2031 60.5169 24.4179C61.7299 25.277 62.9189 26.1727 64.1761 26.9751C64.2765 27.0399 64.3608 27.121 64.4572 27.1899C64.6661 27.3317 64.6621 27.4776 64.5175 27.6762C63.5093 29.0541 62.3123 30.2172 60.8784 31.1575C59.1794 32.2719 57.3197 32.9001 55.3275 33.1473C54.8495 33.2081 54.3635 33.1554 53.8775 33.1554L53.8855 33.1514Z" fill="url(#paint3_linear_3111_1567)"/>
<path d="M107.03 22.5362C107.03 25.7864 107.03 29.0366 107.03 32.2828C107.03 32.6692 106.832 32.8624 106.436 32.8624C105.038 32.8624 103.64 32.8543 102.239 32.8705C101.925 32.8705 101.825 32.7773 101.833 32.4652C101.841 32.141 101.989 31.6911 101.761 31.525C101.503 31.3345 101.194 31.7155 100.905 31.837C98.9369 32.6516 96.9085 32.9758 94.8158 32.5382C93.169 32.1896 91.6587 31.5088 90.3333 30.4227C88.9636 29.3001 87.9353 27.9424 87.2646 26.3133C86.4894 24.4247 86.2323 22.4551 86.65 20.449C86.9995 18.7793 87.6662 17.2434 88.7708 15.906C89.8874 14.5565 91.2049 13.4906 92.8236 12.8462C94.5587 12.1532 96.3461 11.8371 98.2219 12.1654C99.3626 12.364 100.447 12.6963 101.471 13.2272C101.769 13.3812 101.833 13.292 101.841 13.0002C101.861 12.1897 101.869 12.1938 102.688 12.1938C103.958 12.1938 105.223 12.1938 106.492 12.1938C107.01 12.1938 107.022 12.2019 107.022 12.7206C107.022 15.9952 107.022 19.2738 107.022 22.5483L107.03 22.5362ZM91.6588 22.5119C91.6909 25.3406 93.9402 27.6344 96.7277 27.6425C99.5594 27.6506 101.809 25.3487 101.837 22.5645C101.865 19.7722 99.5313 17.4136 96.7759 17.4298C93.8719 17.446 91.723 19.7398 91.6588 22.5119Z" fill="url(#paint4_linear_3111_1567)"/>
<path d="M66.0217 18.6263C66.0217 14.1157 66.0257 9.60102 66.0137 5.0904C66.0137 4.68918 66.1342 4.53113 66.5198 4.4136C67.8894 4.00023 69.247 3.54633 70.6006 3.08433C71.167 2.8898 71.2353 2.91817 71.2353 3.50986C71.2353 6.6912 71.2353 9.8766 71.2353 13.0579C71.2353 13.755 71.2393 13.7672 71.8659 13.4754C73.1231 12.8877 74.4526 12.6973 75.8263 12.6932C77.5534 12.6851 79.152 13.143 80.6341 14.0184C82.0882 14.8776 83.261 16.0448 84.1085 17.5118C85.0203 19.0883 85.438 20.8026 85.434 22.6303C85.426 25.8117 85.434 28.9971 85.434 32.1784C85.434 32.7417 85.43 32.7458 84.8636 32.7458C83.49 32.7458 82.1203 32.7458 80.7466 32.7458C80.2566 32.7458 80.2044 32.6931 80.2044 32.2068C80.2044 28.9566 80.2044 25.7104 80.2044 22.4601C80.2044 20.604 79.3689 19.218 77.7422 18.3953C75.6455 17.3335 72.9062 17.986 71.6731 20.4257C71.3638 21.0376 71.2353 21.678 71.2353 22.3588C71.2393 25.6334 71.2353 28.9079 71.2353 32.1865C71.2353 32.7174 71.2031 32.7458 70.681 32.7458C69.2952 32.7458 67.9095 32.7458 66.5238 32.7458C66.0378 32.7458 66.0177 32.7255 66.0177 32.2311C66.0177 27.6921 66.0177 23.1531 66.0177 18.6182L66.0217 18.6263Z" fill="url(#paint5_linear_3111_1567)"/>
<path d="M155.841 25.0255C153.62 25.0255 151.399 25.0255 149.178 25.0255C149.045 25.0255 148.861 24.9485 148.788 25.1106C148.724 25.2525 148.901 25.3254 148.973 25.4267C149.632 26.3467 150.531 26.9343 151.58 27.2788C152.781 27.6719 153.97 27.5868 155.106 27.0032C155.592 26.756 156.107 26.5493 156.472 26.1116C156.617 25.9414 156.765 25.9982 156.906 26.1359C158.022 27.2221 159.135 28.3122 160.264 29.3862C160.501 29.6131 160.376 29.7388 160.211 29.8968C159.243 30.8127 158.175 31.5503 156.934 32.069C155.516 32.6607 154.062 32.9242 152.548 32.8553C150.66 32.7702 148.941 32.1744 147.354 31.1207C145.479 29.8725 144.153 28.1947 143.398 26.0873C142.888 24.6648 142.607 23.1816 142.783 21.6456C143.032 19.445 143.804 17.4592 145.25 15.7935C146.7 14.1238 148.503 13.0094 150.68 12.4906C152.106 12.1502 153.528 12.0651 154.942 12.3771C157.846 13.0175 160.151 14.5534 161.75 17.1228C163.132 19.3437 163.485 21.755 163.156 24.3082C163.067 24.9931 163.027 25.0215 162.344 25.0215C160.175 25.0215 158.006 25.0215 155.837 25.0215L155.841 25.0255ZM152.966 20.1056C154.347 20.1056 155.733 20.1056 157.115 20.1056C157.48 20.1056 157.516 20.0407 157.348 19.7206C157.316 19.6638 157.283 19.6071 157.247 19.5504C156.263 17.909 153.781 16.8634 151.941 17.3903C150.548 17.7875 149.447 18.5169 148.672 19.7611C148.455 20.1096 148.616 20.1137 148.893 20.1137C150.25 20.1096 151.608 20.1137 152.966 20.1137V20.1056Z" fill="url(#paint6_linear_3111_1567)"/>
<path d="M164.366 13.9598C164.366 10.8554 164.37 7.75108 164.358 4.64674C164.358 4.33063 164.438 4.17663 164.747 4.09152C165.655 3.84431 166.571 3.63763 167.487 3.43499C168.045 3.30936 168.603 3.18373 169.149 3.01352C169.527 2.89599 169.587 3.07025 169.587 3.3742C169.587 4.0591 169.587 4.744 169.587 5.42485C169.587 7.60924 169.587 9.79363 169.587 11.974C169.587 12.3387 169.763 12.5211 170.113 12.5211C171.459 12.5211 172.805 12.5292 174.15 12.513C174.467 12.513 174.552 12.6143 174.548 12.9182C174.536 14.3367 174.532 15.7592 174.548 17.1816C174.552 17.5383 174.431 17.6234 174.094 17.6193C172.736 17.6031 171.375 17.6193 170.017 17.6072C169.668 17.6031 169.571 17.7166 169.575 18.0611C169.591 19.5322 169.599 21.0074 169.575 22.4785C169.555 23.9415 170.138 25.1249 171.162 26.1137C172.021 26.9445 173.082 27.3417 174.247 27.4876C174.459 27.5159 174.544 27.5646 174.544 27.7915C174.536 29.368 174.536 30.9485 174.544 32.525C174.544 32.829 174.391 32.8655 174.15 32.8574C172.825 32.8168 171.571 32.4886 170.375 31.9293C167.969 30.8067 166.237 29.0195 165.165 26.5717C164.558 25.1816 164.35 23.7389 164.358 22.2394C164.378 19.4754 164.362 16.7156 164.362 13.9517L164.366 13.9598Z" fill="url(#paint7_linear_3111_1567)"/>
<path d="M109.002 13.8277C109.002 10.776 109.006 7.72435 108.994 4.67269C108.994 4.34847 109.062 4.16611 109.4 4.0891C110.328 3.88242 111.251 3.65547 112.175 3.43257C112.705 3.30289 113.236 3.16104 113.766 3.02731C114.196 2.92194 114.228 2.9503 114.228 3.40826C114.228 6.11949 114.228 8.82667 114.228 11.5379C114.228 11.7365 114.244 11.9351 114.228 12.1296C114.196 12.4498 114.332 12.5349 114.633 12.5308C116.007 12.5187 117.377 12.5349 118.75 12.5187C119.1 12.5146 119.192 12.624 119.188 12.9685C119.172 14.3626 119.168 15.7567 119.188 17.1509C119.196 17.544 119.056 17.6331 118.69 17.6291C117.345 17.6088 115.999 17.6291 114.653 17.6169C114.328 17.6169 114.22 17.7142 114.224 18.0465C114.236 19.5703 114.188 21.0982 114.24 22.622C114.308 24.5875 115.268 26.0221 116.991 26.9259C117.594 27.242 118.24 27.4487 118.927 27.4973C119.112 27.5095 119.18 27.5824 119.18 27.7607C119.18 29.3656 119.18 30.9704 119.18 32.5753C119.18 32.8023 119.068 32.8711 118.859 32.863C117.702 32.8144 116.602 32.5713 115.517 32.1417C114.758 31.8377 114.055 31.4568 113.388 30.9988C112.501 30.3909 111.749 29.629 111.087 28.7739C110.54 28.0728 110.147 27.2987 109.785 26.4963C109.239 25.2927 109.026 24.0039 109.01 22.703C108.974 19.7446 108.998 16.7821 108.998 13.8236L109.002 13.8277Z" fill="url(#paint8_linear_3111_1567)"/>
<path d="M140.105 21.2913C139.317 20.2377 138.337 19.5122 137.181 19.1313C138.205 18.6693 139.056 17.9844 139.723 17.1009C140.538 16.0107 140.952 14.6409 140.952 13.032C140.952 11.6582 140.615 10.414 139.952 9.32787C139.289 8.24176 138.305 7.38665 137.02 6.77874C135.751 6.17895 134.224 5.875 132.481 5.875H121.797V33.1697H132.951C134.694 33.1697 136.229 32.8536 137.51 32.2254C138.803 31.5932 139.803 30.7057 140.49 29.5831C141.177 28.4605 141.526 27.1434 141.526 25.6682C141.526 24.031 141.044 22.5598 140.097 21.2913H140.105ZM127.344 16.9347V10.6977H131.758C132.907 10.6977 133.794 10.9773 134.405 11.5244C135.012 12.0715 135.305 12.8253 135.305 13.8385C135.305 14.8517 135.012 15.5973 134.409 16.1282C133.803 16.6632 132.911 16.9347 131.762 16.9347H127.348H127.344ZM135.923 25.0157C135.923 26.0775 135.61 26.8719 134.971 27.4433C134.329 28.0188 133.405 28.3065 132.232 28.3065H127.344V21.571H132.124C133.296 21.571 134.236 21.883 134.915 22.4909C135.594 23.1029 135.923 23.9256 135.923 25.0157Z" fill="url(#paint9_linear_3111_1567)"/>
</g>
<defs>
<linearGradient id="paint0_linear_3111_1567" x1="2.17896" y1="18.2744" x2="211.316" y2="-5.5089" gradientUnits="userSpaceOnUse">
<stop stop-color="#7C46E7"/>
<stop offset="1" stop-color="#5554F3"/>
</linearGradient>
<linearGradient id="paint1_linear_3111_1567" x1="-2.09252" y1="17.9395" x2="224.374" y2="-9.19713" gradientUnits="userSpaceOnUse">
<stop stop-color="#7C46E7"/>
<stop offset="1" stop-color="#5554F3"/>
</linearGradient>
<linearGradient id="paint2_linear_3111_1567" x1="-1.93572" y1="19.2392" x2="224.531" y2="-7.89348" gradientUnits="userSpaceOnUse">
<stop stop-color="#7C46E7"/>
<stop offset="1" stop-color="#5554F3"/>
</linearGradient>
<linearGradient id="paint3_linear_3111_1567" x1="38.8674" y1="21.7634" x2="169.895" y2="4.97907" gradientUnits="userSpaceOnUse">
<stop stop-color="#7C46E7"/>
<stop offset="1" stop-color="#5554F3"/>
</linearGradient>
<linearGradient id="paint4_linear_3111_1567" x1="39.981" y1="30.4591" x2="171.013" y2="13.6748" gradientUnits="userSpaceOnUse">
<stop stop-color="#7C46E7"/>
<stop offset="1" stop-color="#5554F3"/>
</linearGradient>
<linearGradient id="paint5_linear_3111_1567" x1="39.018" y1="22.9586" x2="170.046" y2="6.17431" gradientUnits="userSpaceOnUse">
<stop stop-color="#7C46E7"/>
<stop offset="1" stop-color="#5554F3"/>
</linearGradient>
<linearGradient id="paint6_linear_3111_1567" x1="40.8377" y1="37.1673" x2="171.866" y2="20.383" gradientUnits="userSpaceOnUse">
<stop stop-color="#7C46E7"/>
<stop offset="1" stop-color="#5554F3"/>
</linearGradient>
<linearGradient id="paint7_linear_3111_1567" x1="40.5656" y1="35.0336" x2="171.598" y2="18.2493" gradientUnits="userSpaceOnUse">
<stop stop-color="#7C46E7"/>
<stop offset="1" stop-color="#5554F3"/>
</linearGradient>
<linearGradient id="paint8_linear_3111_1567" x1="39.6593" y1="27.9391" x2="170.687" y2="11.1547" gradientUnits="userSpaceOnUse">
<stop stop-color="#7C46E7"/>
<stop offset="1" stop-color="#5554F3"/>
</linearGradient>
<linearGradient id="paint9_linear_3111_1567" x1="40.0427" y1="30.9651" x2="171.075" y2="14.1808" gradientUnits="userSpaceOnUse">
<stop stop-color="#7C46E7"/>
<stop offset="1" stop-color="#5554F3"/>
</linearGradient>
<clipPath id="clip0_3111_1567">
<rect width="174.55" height="32.3241" fill="white" transform="translate(0 0.839844)"/>
</clipPath>
</defs>
</svg>
