<svg width="1440" height="740" viewBox="0 0 1440 740" fill="none" xmlns="http://www.w3.org/2000/svg">
<g clip-path="url(#clip0_1154_2721)">
<path opacity="0.3" d="M-64 606.368C94.0722 661.785 436.452 758.451 541.394 701.774C672.572 630.928 273.55 143.036 127.004 311.649C-19.5422 480.262 596.208 258.421 672.5 74.2214C748.792 -109.978 624.6 -155.742 490.5 -11.8639C377.859 108.991 1068.66 -237.002 1241 -37.6895C1413.34 161.624 1435.09 220.927 1625 192.589" stroke="white"/>
<g opacity="0.1">
<path d="M503.558 409.476C503.558 389.639 503.558 369.801 503.558 349.963C503.558 346.424 503.79 346.546 507.208 345.61C515.519 343.337 524.046 342.082 532.393 339.955C538.705 338.345 538.066 337.659 538.071 343.988C538.095 364.518 538.071 385.041 538.077 405.57C538.077 408.046 538.333 408.186 540.524 407.087C551.695 401.49 563.518 398.531 576.003 399.554C586.279 400.397 596.073 403.17 605.163 408.418C613.853 413.434 621.072 419.915 626.931 427.93C632.069 434.952 635.434 442.827 637.637 451.244C640.049 460.479 640.619 469.826 638.596 479.108C637.102 485.955 634.992 492.645 631.575 498.951C626.588 508.158 619.944 515.778 611.592 521.98C606.727 525.589 601.403 528.379 595.736 530.582C586.732 534.075 577.421 535.377 567.825 534.918C556.008 534.349 545.151 530.687 535.247 524.34C523.075 516.545 514.13 505.996 508.702 492.552C505.313 484.159 503.569 475.452 503.563 466.408C503.546 447.437 503.563 428.459 503.563 409.488L503.558 409.476ZM605.25 466.199C605.018 447.355 590.022 432.772 571.899 432.679C553.189 432.58 538.124 447.512 538.1 466.21C538.077 484.717 553.247 499.736 571.678 499.754C589.836 499.771 605.169 484.856 605.25 466.199Z" fill="url(#paint0_linear_1154_2721)"/>
<path d="M57.4073 536.835C42.7892 537.428 29.1127 533.708 16.4418 526.734C2.58517 519.102 -8.51062 508.384 -16.491 494.649C-21.4024 486.192 -25.1339 477.305 -26.8893 467.581C-28.1447 460.606 -29.4583 453.666 -28.9759 446.575C-28.1912 434.933 -25.9186 423.657 -21.0827 412.875C-13.7999 396.647 -2.64594 383.802 12.2686 374.363C23.9223 366.987 36.8025 362.779 50.6649 361.547C59.4648 360.762 68.1659 361.308 76.6345 363.407C93.0312 367.464 107.44 375.223 119.21 387.592C122.192 390.725 124.825 394.107 127.568 397.415C129.376 399.6 129.108 400.234 126.754 401.838C119.559 406.738 112.427 411.73 105.266 416.671C104.063 417.502 102.819 418.287 101.587 419.077C98.8086 420.856 98.7273 420.769 96.6755 418.124C89.0962 408.353 79.3431 402.175 67.0674 399.792C53.0306 397.066 40.2201 400.024 28.7175 408.034C21.0336 413.387 15.57 420.803 11.821 429.493C7.11299 440.409 6.60149 451.737 9.59485 462.885C12.5417 473.87 18.7086 483.199 28.1653 490.098C38.9182 497.939 50.9149 501.066 64.0566 499.718C69.7527 499.131 75.0303 496.852 80.1568 494.376C86.9689 491.086 92.5197 486.216 96.9894 480.188C98.4134 478.27 99.3085 478.125 101.308 479.531C109.341 485.169 117.211 491.052 125.516 496.3C126.167 496.713 126.731 497.265 127.376 497.701C128.748 498.631 128.742 499.596 127.777 500.903C121.111 509.942 113.177 517.573 103.708 523.723C92.4732 531.023 80.1742 535.161 66.9802 536.777C63.8299 537.161 60.5924 536.835 57.3956 536.835H57.4073Z" fill="url(#paint1_linear_1154_2721)"/>
<path d="M409.008 467.257C409.008 488.565 409.008 509.873 409.008 531.181C409.008 533.715 407.701 534.98 405.085 534.977C395.832 534.977 386.579 534.918 377.325 535.023C375.256 535.046 374.599 534.413 374.646 532.373C374.692 530.251 375.675 527.304 374.169 526.194C372.472 524.95 370.415 527.444 368.502 528.234C355.494 533.582 342.056 535.715 328.211 532.82C317.313 530.542 307.333 526.078 298.551 518.934C289.501 511.576 282.689 502.677 278.26 491.983C273.127 479.585 271.419 466.681 274.203 453.528C276.522 442.589 280.928 432.499 288.239 423.734C295.627 414.882 304.34 407.907 315.058 403.658C326.531 399.107 338.359 397.05 350.775 399.183C358.325 400.479 365.503 402.664 372.28 406.157C374.239 407.169 374.663 406.593 374.716 404.664C374.861 399.363 374.902 399.363 380.336 399.363C388.723 399.363 397.116 399.363 405.504 399.363C408.939 399.363 409.008 399.427 409.008 402.815C409.008 424.298 409.008 445.774 409.008 467.257ZM307.298 467.088C307.519 485.641 322.393 500.684 340.835 500.736C359.574 500.794 374.466 485.688 374.652 467.437C374.838 449.117 359.406 433.661 341.161 433.754C321.945 433.853 307.717 448.907 307.292 467.083L307.298 467.088Z" fill="url(#paint2_linear_1154_2721)"/>
<path d="M137.722 441.618C137.722 412.033 137.757 382.449 137.664 352.858C137.658 350.237 138.449 349.196 141.018 348.429C150.079 345.72 159.065 342.733 168.028 339.71C171.771 338.449 172.224 338.618 172.224 342.512C172.224 363.384 172.224 384.262 172.224 405.134C172.224 409.714 172.259 409.79 176.403 407.872C184.727 404.012 193.521 402.78 202.611 402.739C214.044 402.693 224.623 405.704 234.411 411.429C244.036 417.061 251.784 424.722 257.393 434.347C263.42 444.687 266.193 455.94 266.164 467.913C266.111 488.786 266.152 509.663 266.146 530.536C266.146 534.221 266.111 534.261 262.362 534.261C253.283 534.261 244.204 534.273 235.126 534.261C231.871 534.261 231.545 533.913 231.545 530.733C231.545 509.425 231.557 488.123 231.545 466.815C231.539 454.65 226.012 445.559 215.265 440.165C201.379 433.196 183.262 437.468 175.113 453.481C173.067 457.498 172.207 461.694 172.213 466.158C172.242 487.635 172.23 509.111 172.224 530.594C172.224 534.064 172.021 534.267 168.557 534.267C159.391 534.267 150.225 534.267 141.058 534.267C137.838 534.267 137.716 534.145 137.716 530.902C137.716 501.143 137.716 471.383 137.716 441.624L137.722 441.618Z" fill="url(#paint3_linear_1154_2721)"/>
<path d="M731.983 483.537C717.283 483.537 702.584 483.531 687.885 483.56C687.001 483.56 685.775 483.061 685.298 484.113C684.88 485.043 686.054 485.513 686.53 486.176C690.884 492.198 696.847 496.069 703.793 498.33C711.75 500.916 719.597 500.335 727.135 496.534C730.361 494.906 733.744 493.546 736.179 490.68C737.138 489.553 738.115 489.937 739.062 490.849C746.444 497.975 753.808 505.124 761.271 512.169C762.852 513.663 762.027 514.482 760.934 515.505C754.529 521.503 747.461 526.345 739.248 529.751C729.873 533.64 720.248 535.348 710.216 534.912C697.713 534.366 686.35 530.443 675.853 523.526C663.438 515.342 654.661 504.351 649.68 490.535C646.315 481.201 644.443 471.488 645.606 461.398C647.256 446.983 652.365 433.946 661.915 423.031C671.494 412.086 683.438 404.768 697.847 401.374C707.286 399.153 716.685 398.584 726.048 400.624C745.258 404.82 760.516 414.887 771.088 431.749C780.225 446.326 782.579 462.119 780.388 478.852C779.801 483.34 779.528 483.531 775.029 483.531C760.678 483.531 746.322 483.531 731.971 483.531L731.983 483.537ZM712.965 451.284C722.119 451.284 731.274 451.302 740.428 451.273C742.858 451.267 743.079 450.837 741.963 448.739C741.759 448.361 741.527 447.995 741.306 447.628C734.784 436.876 718.359 430.017 706.188 433.452C696.963 436.056 689.681 440.851 684.566 448.989C683.124 451.284 684.182 451.302 686.025 451.296C695.005 451.267 703.985 451.284 712.971 451.284H712.965Z" fill="url(#paint4_linear_1154_2721)"/>
<path d="M788.375 410.994C788.375 390.639 788.404 370.284 788.322 349.929C788.316 347.866 788.851 346.854 790.909 346.302C796.907 344.686 802.964 343.338 809.026 341.99C812.711 341.17 816.408 340.339 820.017 339.234C822.516 338.467 822.923 339.612 822.917 341.6C822.906 346.087 822.917 350.569 822.917 355.056C822.917 369.372 822.917 383.693 822.917 398.009C822.917 400.404 824.08 401.603 826.405 401.607C835.309 401.607 844.22 401.665 853.124 401.566C855.211 401.543 855.775 402.229 855.757 404.234C855.67 413.551 855.647 422.863 855.769 432.18C855.798 434.522 854.984 435.086 852.77 435.057C843.778 434.946 834.786 435.08 825.795 434.964C823.487 434.935 822.854 435.69 822.877 437.94C822.987 447.6 823.039 457.26 822.894 466.92C822.755 476.511 826.626 484.27 833.38 490.745C839.058 496.185 846.091 498.807 853.781 499.766C855.182 499.94 855.751 500.283 855.74 501.748C855.699 512.1 855.682 522.446 855.74 532.797C855.751 534.791 854.74 535.018 853.124 534.971C844.365 534.71 836.059 532.553 828.154 528.897C812.229 521.533 800.778 509.821 793.676 493.756C789.653 484.654 788.27 475.191 788.34 465.339C788.468 447.228 788.375 429.117 788.375 411V410.994Z" fill="url(#paint5_linear_1154_2721)"/>
<path d="M422.062 410.139C422.062 390.127 422.091 370.115 422.016 350.109C422.01 347.987 422.475 346.778 424.713 346.284C430.857 344.936 436.965 343.448 443.074 341.971C446.585 341.123 450.078 340.181 453.589 339.321C456.431 338.623 456.658 338.809 456.658 341.832C456.663 359.6 456.658 377.369 456.658 395.137C456.658 396.433 456.768 397.735 456.629 399.014C456.402 401.118 457.309 401.658 459.314 401.641C468.393 401.554 477.472 401.676 486.55 401.548C488.87 401.513 489.486 402.245 489.457 404.495C489.34 413.638 489.323 422.78 489.462 431.923C489.503 434.51 488.591 435.091 486.173 435.056C477.268 434.928 468.358 435.056 459.453 434.963C457.314 434.94 456.594 435.608 456.611 437.77C456.704 447.774 456.379 457.788 456.721 467.785C457.163 480.666 463.522 490.076 474.937 496.016C478.931 498.097 483.214 499.445 487.742 499.777C488.963 499.864 489.416 500.329 489.41 501.515C489.393 512.035 489.393 522.561 489.41 533.081C489.41 534.558 488.672 535.029 487.294 534.97C479.651 534.657 472.351 533.064 465.196 530.239C460.168 528.251 455.518 525.735 451.113 522.747C445.23 518.76 440.273 513.779 435.873 508.17C432.269 503.578 429.659 498.486 427.253 493.244C423.632 485.345 422.231 476.905 422.126 468.367C421.882 448.965 422.051 429.552 422.051 410.144L422.062 410.139Z" fill="url(#paint6_linear_1154_2721)"/>
</g>
</g>
<defs>
<linearGradient id="paint0_linear_1154_2721" x1="-300.348" y1="540.498" x2="1197.63" y2="359.403" gradientUnits="userSpaceOnUse">
<stop stop-color="#7549E0"/>
<stop offset="1" stop-color="#5554EB"/>
</linearGradient>
<linearGradient id="paint1_linear_1154_2721" x1="-306.062" y1="493.249" x2="1191.93" y2="312.153" gradientUnits="userSpaceOnUse">
<stop stop-color="#7549E0"/>
<stop offset="1" stop-color="#5554EB"/>
</linearGradient>
<linearGradient id="paint2_linear_1154_2721" x1="-299.459" y1="547.845" x2="1198.52" y2="366.744" gradientUnits="userSpaceOnUse">
<stop stop-color="#7549E0"/>
<stop offset="1" stop-color="#5554EB"/>
</linearGradient>
<linearGradient id="paint3_linear_1154_2721" x1="-305.266" y1="499.817" x2="1192.72" y2="318.722" gradientUnits="userSpaceOnUse">
<stop stop-color="#7549E0"/>
<stop offset="1" stop-color="#5554EB"/>
</linearGradient>
<linearGradient id="paint4_linear_1154_2721" x1="-294.478" y1="589.066" x2="1203.5" y2="407.971" gradientUnits="userSpaceOnUse">
<stop stop-color="#7549E0"/>
<stop offset="1" stop-color="#5554EB"/>
</linearGradient>
<linearGradient id="paint5_linear_1154_2721" x1="-296.292" y1="574.048" x2="1201.69" y2="392.952" gradientUnits="userSpaceOnUse">
<stop stop-color="#7549E0"/>
<stop offset="1" stop-color="#5554EB"/>
</linearGradient>
<linearGradient id="paint6_linear_1154_2721" x1="-301.563" y1="530.443" x2="1196.42" y2="349.347" gradientUnits="userSpaceOnUse">
<stop stop-color="#7549E0"/>
<stop offset="1" stop-color="#5554EB"/>
</linearGradient>
<clipPath id="clip0_1154_2721">
<rect width="1440" height="740" fill="white"/>
</clipPath>
</defs>
</svg>
